PathFileType	4	(X/Y/Z)	C:/Users/opensim2020/Desktop/walking_exp_matlab/subject06_walking17_straight_03.trc																																																																																																																																					
DataRate	CameraRate	NumFrames	NumMarkers	Units	OrigDataRate	OrigDataStartFrame	OrigNumFrames																																																																																																																																	
100	100	5	45	mm	100	3466	295																																																																																																																																	
Frame#	Time	LFHD			RFHD			LBHD			RBHD			C7			T10			CLAV			STRN			RBAK			LSHO			LUPA			LELB			LFRM			LWRA			LWRB			LFIN			RSHO			RUPA			RELB			RFRM			RWRA			RWRB			RFIN			LASI			RASI			LPSI			RPSI			LTHI			LKNE			LTIB			LANK			LHEE			LTOE			RTHI			RKNE			RTIB			RANK			RHEE			RTOE			*39			*40			*41			*42			*43			*44		
		X1	Y1	Z1	X2	Y2	Z2	X3	Y3	Z3	X4	Y4	Z4	X5	Y5	Z5	X6	Y6	Z6	X7	Y7	Z7	X8	Y8	Z8	X9	Y9	Z9	X10	Y10	Z10	X11	Y11	Z11	X12	Y12	Z12	X13	Y13	Z13	X14	Y14	Z14	X15	Y15	Z15	X16	Y16	Z16	X17	Y17	Z17	X18	Y18	Z18	X19	Y19	Z19	X20	Y20	Z20	X21	Y21	Z21	X22	Y22	Z22	X23	Y23	Z23	X24	Y24	Z24	X25	Y25	Z25	X26	Y26	Z26	X27	Y27	Z27	X28	Y28	Z28	X29	Y29	Z29	X30	Y30	Z30	X31	Y31	Z31	X32	Y32	Z32	X33	Y33	Z33	X34	Y34	Z34	X35	Y35	Z35	X36	Y36	Z36	X37	Y37	Z37	X38	Y38	Z38	X39	Y39	Z39	X40	Y40	Z40	X41	Y41	Z41	X42	Y42	Z42	X43	Y43	Z43	X44	Y44	Z44	X45	Y45	Z45
																																																																																																																																								
259	2.58	881.14783	1652.66248	-1065.21802	856.2818	1631.005	-937.57184	753.54602	1595.27136	-1096.71936	729.79053	1578.69849	-970.51111	745.28204	1434.60059	-1042.9021	717.71802	1104.53918	-1034.69189	853.92542	1357.27002	-1031.76733	896.9718	1182.33484	-1040.69971	667.94305	1259.32837	-973.11029	816.72858	1389.54443	-1197.22083	859.54144	1190.51477	-1267.31006	887.52399	1080.21448	-1278.55786	977.2984	957.58704	-1281.60754	1072.64465	887.82739	-1215.91553	1031.4093	852.9046	-1261.29614	1105.99988	804.33142	-1246.97217	795.9079	1383.84912	-873.89246	741.55664	1183.91187	-797.39648	744.7276	1061.30432	-788.0639	751.36859	940.55103	-772.8775	804.56317	797.9223	-800.91351	747.27246	802.74548	-766.62854	779.24927	724.98584	-761.24371	885.20099	939.53882	-1148.44141	903.96552	953.73572	-927.01007	728.75513	974.16797	-1108.84412	750.20062	982.55676	-940.68787	763.24078	629.5506	-1184.09875	728.12579	469.09134	-1157.90356	577.57495	258.29208	-1139.80762	492.71274	109.6599	-1090.20203	449.62042	113.95303	-1044.98193	614.81738	34.21301	-1083.0116	899.50177	629.21832	-865.69116	930.23193	510.76599	-897.90436	944.21051	245.63242	-903.82324	979.24988	64.24948	-954.38544	949.69287	38.64688	-1005.20868	1133.08521	50.94202	-943.1463	769.96594	1683.33557	-1024.69299	NaN	NaN	NaN	NaN	NaN	NaN	NaN	NaN	NaN	NaN	NaN	NaN	NaN	NaN	NaN
260	2.59	888.45496	1653.98169	-1063.422	863.89355	1632.04285	-935.83984	760.72845	1596.80383	-1094.7915	737.23035	1579.86194	-968.55951	752.66876	1435.65808	-1041.52222	725.82019	1105.96753	-1034.15869	861.69635	1358.69238	-1030.60706	905.05536	1183.89038	-1039.88037	676.13239	1260.4967	-971.90277	824.34338	1391.32666	-1195.9845	866.8761	1192.27075	-1265.76355	894.67059	1081.93616	-1276.79749	982.5365	957.99078	-1280.62988	1077.06494	886.37939	-1215.86694	1035.12024	852.34088	-1261.29602	1109.2124	802.87408	-1248.0332	803.72278	1385.16235	-872.82538	750.61328	1184.99939	-796.28766	754.09149	1062.45605	-787.17145	760.51642	941.7146	-771.87445	813.55542	798.91895	-800.09479	756.45184	803.81348	-765.63672	788.33331	725.97125	-760.29126	893.77551	940.91522	-1147.24646	912.35834	956.20868	-926.62598	737.62549	975.25897	-1108.76306	758.39734	984.34845	-940.91699	772.84821	630.16602	-1183.55115	738.91968	469.49963	-1157.3645	584.30817	261.63507	-1139.39307	496.59811	114.63992	-1090.65137	453.71722	120.08554	-1045.38916	615.59283	34.55961	-1082.83459	906.16669	630.90564	-864.53534	936.11798	511.76279	-896.30859	945.66083	246.02097	-902.97504	979.61957	64.12476	-953.52045	950.39746	39.2034	-1004.77136	1133.26917	48.70256	-940.06299	777.41748	1684.67114	-1022.58685	NaN	NaN	NaN	NaN	NaN	NaN	NaN	NaN	NaN	NaN	NaN	NaN	NaN	NaN	NaN
261	2.6	895.69196	1655.59021	-1061.61072	871.41382	1633.12744	-934.078	767.88074	1598.42749	-1092.92358	744.62946	1581.09656	-966.75702	760.08966	1436.80908	-1040.32507	733.77948	1107.60034	-1033.61133	869.49103	1360.21619	-1029.52222	913.15015	1185.56213	-1039.00183	684.2348	1261.79761	-970.87384	831.8194	1393.19043	-1194.64392	873.82434	1194.03882	-1264.12024	901.46313	1083.96362	-1274.979	987.40808	958.68341	-1279.74658	1081.10803	885.13721	-1215.92358	1038.37207	852.04828	-1261.41895	1111.78381	801.41309	-1249.05237	811.5719	1386.71875	-871.81287	759.64783	1186.35181	-795.29877	763.4718	1063.93152	-786.42419	770.12292	943.21222	-771.11676	822.6424	800.36206	-799.33545	765.73901	805.34869	-764.46454	797.51709	727.31128	-759.45984	902.75043	942.35065	-1146.48267	920.42804	958.80371	-926.02832	746.53595	976.57416	-1108.61475	766.49353	986.14429	-940.99896	782.90424	630.75586	-1182.95679	750.36896	469.84671	-1156.92542	591.48816	265.30704	-1139.33777	500.99899	119.85608	-1091.0918	458.41565	126.61182	-1045.745	616.41766	34.79769	-1082.52026	912.60828	632.24969	-863.28436	941.38983	512.53882	-894.59979	947.87585	246.25215	-902.05487	979.98694	63.93991	-952.85724	950.85547	39.57561	-1004.44043	1133.32117	46.6784	-938.08063	784.74994	1686.19885	-1020.63318	NaN	NaN	NaN	NaN	NaN	NaN	NaN	NaN	NaN	NaN	NaN	NaN	NaN	NaN	NaN
262	2.61	902.92798	1657.1947	-1059.76807	878.81042	1634.27747	-932.28577	775.14758	1600.20178	-1091.17554	752.06793	1582.34155	-965.03345	767.54968	1438.02551	-1039.06372	741.95557	1109.08521	-1032.98438	877.32855	1361.83154	-1028.42175	921.26141	1187.34167	-1038.08899	692.29651	1263.15503	-969.86621	839.22296	1395.31165	-1193.33167	880.84467	1196.15308	-1262.62415	907.90479	1086.0321	-1273.1864	992.11554	959.7254	-1279.17456	1084.69934	883.91754	-1216.09949	1041.24658	851.87988	-1261.68726	1113.87439	799.97632	-1250.0647	819.35693	1388.44104	-870.83649	768.61975	1187.8584	-794.34363	772.78802	1065.55164	-785.69434	779.42938	944.99652	-770.11096	831.96783	801.95721	-798.49615	775.25952	807.03149	-763.38251	806.87854	728.80579	-758.66565	911.9035	943.85699	-1145.44324	928.26672	961.13953	-924.96271	755.41809	977.97607	-1108.15759	774.63562	987.83356	-940.79572	793.32788	631.36847	-1182.35229	762.29083	470.10483	-1156.56189	599.36365	269.06631	-1139.1781	506.00009	125.21667	-1091.47156	463.82312	133.34798	-1046.05981	617.45972	35.10153	-1082.19739	918.51733	633.38184	-861.90771	946.10876	513.06305	-892.94629	950.10828	246.3618	-901.33765	980.26587	63.84109	-952.59747	950.99738	39.73756	-1004.16455	1133.85474	45.40994	-938.24591	791.9837	1687.50488	-1018.30902	NaN	NaN	NaN	NaN	NaN	NaN	NaN	NaN	NaN	NaN	NaN	NaN	NaN	NaN	NaN
263	2.62	910.18433	1658.88403	-1057.89832	886.2818	1635.45825	-930.47919	782.32251	1601.98877	-1089.46277	759.35883	1583.54724	-963.39526	774.9762	1439.35498	-1037.90466	749.87372	1110.71033	-1032.21484	885.00763	1363.44495	-1027.22363	929.38135	1189.07861	-1037.13403	700.30249	1264.71399	-968.71332	846.54889	1397.49341	-1192.00745	887.76678	1198.37463	-1261.24573	913.75708	1088.03516	-1271.60181	996.26978	960.60864	-1278.67615	1088.14929	882.9043	-1216.53418	1043.92041	851.92706	-1262.10144	1115.85974	798.77301	-1251.21729	827.20392	1390.13977	-869.90259	777.4856	1189.44775	-793.31799	781.88599	1067.21863	-784.91138	788.94672	946.771	-769.26233	841.45074	803.59912	-797.64056	784.92651	808.76727	-762.21808	816.52875	730.35187	-757.77747	920.63318	945.37567	-1144.14478	935.77307	962.992	-923.60883	764.14435	979.5434	-1107.63123	782.52173	989.38196	-940.27332	803.99072	631.94617	-1181.77502	774.51007	470.27731	-1156.32581	607.70544	272.7916	-1138.99585	511.27393	130.84831	-1091.54333	469.93356	140.22586	-1046.24365	618.63239	35.33799	-1081.72632	923.29572	633.78314	-860.67297	950.22845	513.3269	-891.46478	952.26581	246.508	-900.98895	980.85474	63.88166	-952.62482	951.04657	39.85418	-1003.97687	1134.74182	44.62016	-939.9552	799.31873	1689.11975	-1016.38538	NaN	NaN	NaN	NaN	NaN	NaN	NaN	NaN	NaN	NaN	NaN	NaN	NaN	NaN	NaN
